#!OML:ASF H:\ManfredETheater\Project 1\Capture day 1\Session 1\subject.ASF
:FULLY-SPECIFIED
:DEGREES
63
root 0.435414 16.5774 -20.222 12.1579 -6.80027 -4.64358
lowerback 19.1081 0.479843 3.53608
upperback 0.56023 1.77073 3.5706
thorax -10.1527 0.761219 1.41496
lowerneck -17.9004 0.730198 -1.43674
upperneck 3.79627 1.64981 -4.19928
head 4.01825 0.525796 -0.938814
rclavicle 2.38542e-014 4.21423e-014
rhumerus -42.0536 10.7488 -92.9895
rradius 95.6521
rwrist -7.69584
rhand -25.3891 8.83513
rfingers 7.12502
rthumb 1.13573 -21.1416
lclavicle 2.38542e-014 4.21423e-014
lhumerus -56.1893 -13.064 99.8381
lradius 94.0754
lwrist 13.8649
lhand -25.8109 -19.8101
lfingers 7.12502
lthumb 0.728392 10.1684
rfemur -33.7167 -2.14765 32.8076
rtibia 55.9324
rfoot -24.4834 -15.1394
rtoes -23.8521
lfemur -58.9637 14.4505 -12.7088
ltibia 126.127
lfoot -9.33031 -8.23318
ltoes -5.97096
64
root 0.397539 16.6696 -19.7786 12.2848 -7.00145 -4.73734
lowerback 18.635 0.853643 3.58298
upperback 0.382386 2.24341 3.44886
thorax -10.0783 0.98003 1.13125
lowerneck -17.8929 0.508385 -1.48437
upperneck 4.12693 1.3618 -3.99556
head 4.11303 0.389266 -0.892333
rclavicle -7.35503e-015 3.10104e-014
rhumerus -41.5203 12.0185 -93.2705
rradius 98.7204
rwrist -7.80286
rhand -24.8866 9.19246
rfingers 7.12502
rthumb 1.62105 -20.7811
lclavicle -7.35503e-015 3.10104e-014
lhumerus -58.8065 -14.0014 100.054
lradius 96.3315
lwrist 14.5478
lhand -24.8493 -19.5924
lfingers 7.12502
lthumb 1.65714 10.3809
rfemur -31.0198 -2.51995 32.7163
rtibia 53.9659
rfoot -24.7958 -14.9984
rtoes -24.8741
lfemur -63.5061 14.815 -13.5481
ltibia 126.275
lfoot -10.1512 -7.72515
ltoes -6.37751
65
root 0.357895 16.7813 -19.3278 12.3896 -7.14795 -4.72648
lowerback 18.1596 1.24203 3.54149
upperback 0.199768 2.71403 3.28909
thorax -10.0051 1.2018 0.862575
lowerneck -17.8997 0.240736 -1.57494
upperneck 4.44997 1.01734 -3.75113
head 4.20721 0.22718 -0.831511
rclavicle -6.95746e-015 -3.81667e-014
rhumerus -41.184 13.1279 -93.438
rradius 101.848
rwrist -7.90578
rhand -24.4825 9.59788
rfingers 7.12502
rthumb 2.01137 -20.3724
lclavicle -6.95746e-015 -3.81667e-014
lhumerus -61.3748 -14.8798 100.296
lradius 98.603
lwrist 15.2257
lhand -23.8702 -19.3206
lfingers 7.12502
lthumb 2.60273 10.6433
rfemur -28.1467 -2.83843 32.4774
rtibia 51.6414
rfoot -24.6889 -14.8125
rtoes -26.0448
lfemur -67.7089 14.6861 -14.5011
ltibia 125.724
lfoot -10.92 -7.34737
ltoes -6.82827
66
root 0.316948 16.9125 -18.8696 12.4609 -7.24082 -4.63074
lowerback 17.6927 1.63344 3.42277
upperback 0.0230499 3.17173 3.10037
thorax -9.92878 1.42118 0.615159
lowerneck -17.9163 -0.0584133 -1.69912
upperneck 4.75513 0.633632 -3.47499
head 4.29795 0.0479041 -0.759233
rclavicle 2.54444e-014 1.98785e-014
rhumerus -40.9913 14.0979 -93.5097
rradius 104.934
rwrist -7.95616
rhand -24.1533 10.0938
rfingers 7.12502
rthumb 2.32933 -19.8733
lclavicle 2.54444e-014 1.98785e-014
lhumerus -63.8358 -15.6129 100.507
lradius 100.762
lwrist 15.7738
lhand -22.9247 -19.0201
lfingers 7.12502
lthumb 3.51578 10.9307
rfemur -25.1115 -3.0474 32.1113
rtibia 48.9863
rfoot -24.0811 -14.5585
rtoes -27.3954
lfemur -71.4567 14.1406 -15.4407
ltibia 124.502
lfoot -11.7076 -7.10842
ltoes -7.43884
67
root 0.275196 17.0637 -18.4031 12.4762 -7.23805 -4.47466
lowerback 17.2542 1.99613 3.26881
upperback -0.138258 3.58535 2.89207
thorax -9.84989 1.62151 0.382474
lowerneck -17.9394 -0.371727 -1.83936
upperneck 5.03738 0.230424 -3.17651
head 4.38398 -0.138937 -0.679527
rclavicle -2.98177e-015 3.26007e-014
rhumerus -40.904 14.9421 -93.5228
rradius 107.877
rwrist -7.8709
rhand -23.8891 10.7002
rfingers 7.12502
rthumb 2.58448 -19.2639
lclavicle -2.98177e-015 3.26007e-014
lhumerus -66.159 -16.1388 100.647
lradius 102.728
lwrist 16.1264
lhand -22.0927 -18.7296
lfingers 7.12502
lthumb 4.31924 11.2063
rfemur -21.9098 -3.14083 31.6553
rtibia 46.0281
rfoot -22.9298 -14.189
rtoes -28.8414
lfemur -74.6529 13.2449 -16.2675
ltibia 122.637
lfoot -12.4679 -7.07003
ltoes -7.99683
68
root 0.233505 17.2337 -17.9286 12.4269 -7.15728 -4.3071
lowerback 16.8674 2.31951 3.12019
upperback -0.279348 3.9513 2.67907
thorax -9.77578 1.79913 0.156785
lowerneck -17.9645 -0.681275 -1.98205
upperneck 5.29687 -0.170646 -2.86485
head 4.46513 -0.322976 -0.595509
rclavicle -3.8763e-014 -7.15625e-015
rhumerus -40.9001 15.6658 -93.5144
rradius 110.595
rwrist -7.59772
rhand -23.6578 11.4417
rfingers 7.12502
rthumb 2.80781 -18.5196
lclavicle -3.8763e-014 -7.15625e-015
lhumerus -68.3274 -16.4125 100.69
lradius 104.453
lwrist 16.2892
lhand -21.4483 -18.4965
lfingers 7.12502
lthumb 4.94154 11.4259
rfemur -18.558 -3.07527 31.1643
rtibia 42.8025
rfoot -21.1975 -13.6444
rtoes -30.2544
lfemur -77.2438 12.1518 -16.9138
ltibia 120.18
lfoot -13.2158 -7.24851
ltoes -8.45799
69
root 0.192484 17.4209 -17.4476 12.3029 -6.98422 -4.14442
lowerback 16.5557 2.58526 3.00159
upperback -0.396801 4.2511 2.4684
thorax -9.71547 1.94377 -0.0661193
lowerneck -17.9889 -0.973409 -2.12072
upperneck 5.53671 -0.552678 -2.54097
head 4.5421 -0.495879 -0.506969
rclavicle -4.17448e-014 -3.33958e-014
rhumerus -40.9634 16.2662 -93.525
rradius 113.021
rwrist -7.14635
rhand -23.4245 12.2921
rfingers 7.12502
rthumb 3.03313 -17.6661
lclavicle -4.17448e-014 -3.33958e-014
lhumerus -70.3267 -16.4182 100.618
lradius 105.917
lwrist 16.3301
lhand -20.9961 -18.3216
lfingers 7.12502
lthumb 5.37811 11.5901
rfemur -15.0895 -2.85799 30.6719
rtibia 39.3494
rfoot -18.841 -12.9196
rtoes -31.5487
lfemur -79.2154 10.9404 -17.3759
ltibia 117.183
lfoot -13.9555 -7.6195
ltoes -8.90341
70
root 0.153205 17.6235 -16.9595 12.1118 -6.72432 -3.98518
lowerback 16.2953 2.78609 2.92282
upperback -0.487078 4.47475 2.25975
thorax -9.65121 2.05044 -0.290068
lowerneck -18.0106 -1.23834 -2.25517
upperneck 5.76117 -0.902751 -2.20327
head 4.61583 -0.651266 -0.412206
rclavicle -5.96354e-014 -3.18055e-014
rhumerus -41.0912 16.7449 -93.593
rradius 115.111
rwrist -6.50666
rhand -23.2379 13.1578
rfingers 7.12502
rthumb 3.21332 -16.7977
lclavicle -5.96354e-014 -3.18055e-014
lhumerus -72.1497 -16.1645 100.432
lradius 107.118
lwrist 16.3235
lhand -20.7462 -18.1945
lfingers 7.12502
lthumb 5.61941 11.711
rfemur -11.5535 -2.51485 30.1858
rtibia 35.7066
rfoot -15.8228 -12.0275
rtoes -32.5859
lfemur -80.5777 9.67098 -17.6942
ltibia 113.71
lfoot -14.7278 -8.1262
ltoes -9.48978
71
root 0.116725 17.8382 -16.4671 11.8818 -6.38061 -3.82825
lowerback 16.0784 2.91839 2.89051
upperback -0.559248 4.61822 2.05281
thorax -9.58853 2.11664 -0.519114
lowerneck -18.0391 -1.47375 -2.3844
upperneck 5.98403 -1.21677 -1.8571
head 4.69197 -0.787743 -0.312738
rclavicle 4.29375e-014 -2.38542e-015
rhumerus -41.2763 17.098 -93.7373
rradius 116.826
rwrist -5.77266
rhand -23.089 13.998
rfingers 7.12502
rthumb 3.35713 -15.9553
lclavicle 4.29375e-014 -2.38542e-015
lhumerus -73.7838 -15.6732 100.146
lradius 108.063
lwrist 16.349
lhand -20.6972 -18.1001
lfingers 7.12502
lthumb 5.66674 11.8041
rfemur -8.04211 -2.09128 29.7154
rtibia 31.9184
rfoot -12.0854 -11.0568
rtoes -33.2191
lfemur -81.4064 8.38406 -17.9241
ltibia 109.819
lfoot -15.4876 -8.70445
ltoes -10.2479
